<svg id="Ebene_1" data-name="Ebene 1" xmlns="http://www.w3.org/2000/svg" width="765.15857" height="356.70325" viewBox="0 0 765.15857 356.70325"><defs><style>.cls-1{fill:#e6e6e6;}.cls-2{fill:#ec6f83;}.cls-3{fill:#b3b3b3;}.cls-4{fill:#ccc;}.cls-5{fill:#fff;}.cls-6{fill:gray;}.cls-7{fill:none;stroke:#fff;stroke-miterlimit:10;}.cls-8{fill:#c1272d;}.cls-9{fill:#d9e021;}.cls-10{fill:#009245;}</style></defs><title>gitofolio-ilustration</title><rect class="cls-1" y="92.17553" width="500.64787" height="101.0853" rx="50.5426"/><rect class="cls-1" x="92.02171" y="0.13254" width="81.43158" height="81.43158" rx="4.75276"/><polygon class="cls-2" points="123.557 0.133 123.557 20.628 132.666 11.519 141.918 20.77 141.918 0.133 123.557 0.133"/><rect class="cls-3" x="129.34814" y="66.97847" width="33.38091" height="3.86141"/><path class="cls-4" d="M83.07487,135.96979l-5.7543-.08139a27.421,27.421,0,0,0-3.04463-7.28l3.99069-3.87939a2.15407,2.15407,0,0,0,.043-3.03711l-6.48206-6.66808a2.15411,2.15411,0,0,0-3.03714-.043l-4.15426,4.03837a27.41394,27.41394,0,0,0-7.27306-3.002l.079-5.5848a2.15413,2.15413,0,0,0-2.11719-2.178l-9.29858-.13153a2.15411,2.15411,0,0,0-2.178,2.11719l-.08192,5.79187a27.41761,27.41761,0,0,0-7.26651,3.02032l-3.89228-4.004a2.15408,2.15408,0,0,0-3.03711-.043l-6.66812,6.4821a2.15407,2.15407,0,0,0-.043,3.0371l4.02539,4.14092a27.41719,27.41719,0,0,0-3.02641,7.28589l-5.54745-.07848a2.15406,2.15406,0,0,0-2.17794,2.11719l-.13153,9.29858a2.15407,2.15407,0,0,0,2.11716,2.17793l5.73175.08107a27.416,27.416,0,0,0,3.03124,7.31522l-3.95479,3.84446a2.15411,2.15411,0,0,0-.04294,3.03711L29.366,170.4125a2.15411,2.15411,0,0,0,3.03714.043l4.0913-3.97714a27.41677,27.41677,0,0,0,7.33462,3.03792l-.07763,5.4877a2.15415,2.15415,0,0,0,2.11719,2.178l9.29859.13153a2.15407,2.15407,0,0,0,2.17793-2.11719l.08058-5.69411a27.41988,27.41988,0,0,0,7.32863-3.0556l3.83154,3.94151a2.15411,2.15411,0,0,0,3.0371.043l6.66812-6.4821a2.15409,2.15409,0,0,0,.043-3.0371l-3.99017-4.10469a27.41315,27.41315,0,0,0,3.01361-7.32179l5.525.07815a2.15406,2.15406,0,0,0,2.17793-2.11719l.13154-9.29858A2.1541,2.1541,0,0,0,83.07487,135.96979Z"/><circle class="cls-5" cx="50.59677" cy="142.71818" r="8.45078"/><path class="cls-4" d="M482.28746,135.96979l-5.75429-.08139a27.421,27.421,0,0,0-3.04463-7.28l3.99069-3.87939a2.15407,2.15407,0,0,0,.043-3.03711l-6.48206-6.66808a2.15411,2.15411,0,0,0-3.03714-.043l-4.15426,4.03837a27.41387,27.41387,0,0,0-7.27307-3.002l.079-5.5848a2.15414,2.15414,0,0,0-2.11719-2.178l-9.29858-.13153a2.1541,2.1541,0,0,0-2.178,2.11719l-.08192,5.79187a27.41747,27.41747,0,0,0-7.26651,3.02032l-3.89228-4.004a2.15408,2.15408,0,0,0-3.03711-.043l-6.66812,6.4821a2.15406,2.15406,0,0,0-.043,3.0371l4.02539,4.14092a27.41686,27.41686,0,0,0-3.02641,7.28589l-5.54745-.07848a2.15406,2.15406,0,0,0-2.17794,2.11719l-.13153,9.29858a2.15407,2.15407,0,0,0,2.11716,2.17793l5.73174.08107a27.41633,27.41633,0,0,0,3.03125,7.31522l-3.95479,3.84446a2.1541,2.1541,0,0,0-.04294,3.03711l6.48206,6.66808a2.15411,2.15411,0,0,0,3.03714.043l4.0913-3.97714a27.41677,27.41677,0,0,0,7.33462,3.03792l-.07763,5.4877a2.15415,2.15415,0,0,0,2.11719,2.178l9.29858.13153a2.15408,2.15408,0,0,0,2.17794-2.11719l.08058-5.69411a27.41988,27.41988,0,0,0,7.32863-3.0556l3.83154,3.94151a2.15411,2.15411,0,0,0,3.0371.043l6.66812-6.4821a2.15409,2.15409,0,0,0,.043-3.0371l-3.99017-4.10469a27.41315,27.41315,0,0,0,3.01361-7.32179l5.525.07815a2.15406,2.15406,0,0,0,2.17793-2.11719l.13153-9.29858A2.15408,2.15408,0,0,0,482.28746,135.96979Z"/><circle class="cls-5" cx="449.80937" cy="142.71818" r="8.45078"/><circle class="cls-5" cx="167.14571" cy="142.71818" r="23.09766"/><circle class="cls-5" cx="250.32393" cy="142.71818" r="23.09766"/><circle class="cls-5" cx="333.50216" cy="142.71818" r="23.09766"/><path class="cls-4" d="M44.83424,356.70325a2.681,2.681,0,0,1-2.68106-2.68106V198.88207a2.68106,2.68106,0,0,1,5.36212,0V354.02219A2.681,2.681,0,0,1,44.83424,356.70325Z"/><path class="cls-4" d="M457.71735,356.70325a2.681,2.681,0,0,1-2.68106-2.68106V198.88207a2.68106,2.68106,0,0,1,5.36212,0V354.02219A2.681,2.681,0,0,1,457.71735,356.70325Z"/><rect class="cls-1" x="201.94513" y="0.13254" width="81.43158" height="81.43158" rx="4.75276"/><polygon class="cls-6" points="233.481 0.133 233.481 20.628 242.59 11.519 251.841 20.77 251.841 0.133 233.481 0.133"/><rect class="cls-3" x="239.27156" y="66.97847" width="33.38091" height="3.86141"/><rect class="cls-1" x="311.86856" y="0.13254" width="81.43158" height="81.43158" rx="4.75276"/><polygon class="cls-6" points="343.404 0.133 343.404 20.628 352.513 11.519 361.765 20.77 361.765 0.133 343.404 0.133"/><rect class="cls-3" x="349.19499" y="66.97847" width="33.38091" height="3.86141"/><rect class="cls-1" x="439.86856" y="10.13254" width="81.43158" height="81.43158" rx="4.75276" transform="translate(46.37393 -161.303) rotate(20)"/><polygon class="cls-6" points="485.883 9.448 478.873 28.708 490.549 23.263 496.078 35.121 503.137 15.728 485.883 9.448"/><rect class="cls-3" x="466.79546" y="79.83544" width="33.38091" height="3.86141" transform="translate(57.12344 -160.43082) rotate(20)"/><rect class="cls-1" x="547.86856" y="70.13254" width="81.43158" height="81.43158" rx="4.75276" transform="translate(208.95451 -352.40114) rotate(40)"/><polygon class="cls-6" points="607.723 73.757 594.549 89.458 607.382 88.335 608.523 101.369 621.788 85.559 607.723 73.757"/><rect class="cls-3" x="564.04595" y="138.96326" width="33.38091" height="3.86141" transform="translate(226.43141 -340.32724) rotate(40)"/><rect class="cls-2" x="517.18597" y="125.30631" width="247.9726" height="148.78356" rx="5"/><line class="cls-7" x1="517.18597" y1="140.68061" x2="765.15857" y2="140.68061"/><circle class="cls-8" cx="527.36096" cy="133.48941" r="2.23175"/><circle class="cls-9" cx="535.29608" cy="133.48941" r="2.23175"/><circle class="cls-10" cx="543.2312" cy="133.48941" r="2.23175"/><path class="cls-5" d="M546.54253,173.78952H543.891v-9.24611H533.80681v9.24611H531.169V153.78605h2.63782v8.6004H543.891v-8.6004h2.65156Z"/><path class="cls-5" d="M556.99764,174.0643a6.495,6.495,0,0,1-4.91844-1.98524,7.36832,7.36832,0,0,1-1.89593-5.31V166.302a8.92024,8.92024,0,0,1,.84493-3.94986,6.591,6.591,0,0,1,2.363-2.72025,5.94118,5.94118,0,0,1,3.29041-.98231,5.56724,5.56724,0,0,1,4.50628,1.90967,8.26818,8.26818,0,0,1,1.60742,5.468v1.05787H552.72492a5.284,5.284,0,0,0,1.28456,3.55144,4.03776,4.03776,0,0,0,3.12554,1.35326,4.4267,4.4267,0,0,0,2.28062-.54955,5.73025,5.73025,0,0,0,1.6349-1.45629l1.55247,1.209A6.24231,6.24231,0,0,1,556.99764,174.0643Zm-.316-13.32649a3.3902,3.3902,0,0,0-2.58287,1.1197,5.44239,5.44239,0,0,0-1.29143,3.13928h7.44635v-.19234a4.841,4.841,0,0,0-1.04414-3.0019A3.19186,3.19186,0,0,0,556.68165,160.73781Z"/><path class="cls-5" d="M568.49688,173.78952h-2.54164V152.687h2.54164Z"/><path class="cls-5" d="M575.325,173.78952h-2.54165V152.687H575.325Z"/><path class="cls-5" d="M578.71844,166.21953a8.78021,8.78021,0,0,1,.85866-3.92925,6.4056,6.4056,0,0,1,2.39053-2.69278,6.5073,6.5073,0,0,1,3.49648-.948,6.269,6.269,0,0,1,4.91157,2.102,8.0871,8.0871,0,0,1,1.87532,5.59163v.1786a8.85661,8.85661,0,0,1-.83119,3.89491,6.31128,6.31128,0,0,1-2.37678,2.6859,6.58205,6.58205,0,0,1-3.55144.96171,6.25335,6.25335,0,0,1-4.89783-2.102,8.04623,8.04623,0,0,1-1.87532-5.56415Zm2.55538.30225a6.3595,6.3595,0,0,0,1.14718,3.97047,3.88751,3.88751,0,0,0,6.148-.02061,6.95425,6.95425,0,0,0,1.1403-4.25211,6.3484,6.3484,0,0,0-1.16091-3.9636,3.69062,3.69062,0,0,0-3.08433-1.51812,3.64972,3.64972,0,0,0-3.03624,1.49751A6.90257,6.90257,0,0,0,581.27382,166.52178Z"/><path class="cls-5" d="M595.49332,172.45687a1.59166,1.59166,0,0,1,.39155-1.09909,1.492,1.492,0,0,1,1.17466-.43963,1.53667,1.53667,0,0,1,1.18839.43963,1.5596,1.5596,0,0,1,.40529,1.09909,1.475,1.475,0,0,1-.40529,1.05788,1.56435,1.56435,0,0,1-1.18839.4259,1.41316,1.41316,0,0,1-1.56621-1.48378Z"/><path class="cls-5" d="M534.57617,187.5503l6.53959,16.32151,6.5396-16.32151h3.42092v20.00347h-2.63782V199.764l.2473-8.40805-6.56707,16.19786H540.0991l-6.55333-16.15665.261,8.36684v7.78981H531.169V187.5503Z"/><path class="cls-5" d="M560.19874,203.8306l3.46214-11.142h2.72025l-5.97631,17.15956q-1.38761,3.70944-4.4101,3.70944l-.48086-.04122-.948-.1786v-2.0608l.68693.055a3.38211,3.38211,0,0,0,2.01271-.52207,3.77819,3.77819,0,0,0,1.18839-1.90967l.56329-1.51125-5.30312-14.70035h2.77521Z"/><path class="cls-5" d="M578.01777,192.68856l.08243,1.86845a5.417,5.417,0,0,1,4.45132-2.14323q4.71236,0,4.75357,5.31686v9.82313h-2.54165V197.7169a3.4221,3.4221,0,0,0-.735-2.37679,2.94552,2.94552,0,0,0-2.24627-.76936,3.66824,3.66824,0,0,0-2.1707.65946,4.478,4.478,0,0,0-1.4563,1.73106v10.5925H575.6135V192.68856Z"/><path class="cls-5" d="M600.31559,207.55377a5.3389,5.3389,0,0,1-.35721-1.56621,5.67094,5.67094,0,0,1-4.2315,1.841,5.24734,5.24734,0,0,1-3.60639-1.24334,4.02268,4.02268,0,0,1-1.40822-3.153,4.20234,4.20234,0,0,1,1.76542-3.6064,8.32349,8.32349,0,0,1,4.96652-1.28456h2.473v-1.16779a2.85459,2.85459,0,0,0-.79684-2.12262,3.20248,3.20248,0,0,0-2.34931-.79,3.70618,3.70618,0,0,0-2.28062.68693,2.02416,2.02416,0,0,0-.92049,1.66238h-2.55539a3.50762,3.50762,0,0,1,.79-2.1501,5.39153,5.39153,0,0,1,2.14323-1.64177,7.21015,7.21015,0,0,1,2.97441-.6045,5.87661,5.87661,0,0,1,4.02542,1.28457,4.63383,4.63383,0,0,1,1.51126,3.5377v6.84184a8.36492,8.36492,0,0,0,.52206,3.25606v.21982Zm-4.21777-1.93715a4.467,4.467,0,0,0,2.26688-.61824,3.7396,3.7396,0,0,0,1.55247-1.60742v-3.05h-1.99211q-4.67114,0-4.67114,2.734a2.31384,2.31384,0,0,0,.79684,1.86846A3.06278,3.06278,0,0,0,596.09782,205.61662Z"/><path class="cls-5" d="M608.83355,192.68856l.06869,1.64863a5.48975,5.48975,0,0,1,4.41011-1.92341,4.24994,4.24994,0,0,1,4.24524,2.39053,5.6311,5.6311,0,0,1,1.93028-1.73107,5.70114,5.70114,0,0,1,2.80955-.65946q4.891,0,4.97339,5.17947v9.96052h-2.54165v-9.80939a3.41331,3.41331,0,0,0-.72815-2.38366,3.20667,3.20667,0,0,0-2.44548-.79,3.37024,3.37024,0,0,0-2.34931.84493,3.4277,3.4277,0,0,0-1.08535,2.27374v9.86435h-2.55539v-9.7407q0-3.24233-3.17362-3.24232a3.40061,3.40061,0,0,0-3.42093,2.12949v10.85353h-2.54165V192.68856Z"/><path class="cls-5" d="M637.27254,207.82854a6.495,6.495,0,0,1-4.91843-1.98523,7.3683,7.3683,0,0,1-1.89594-5.31v-.46711a8.92031,8.92031,0,0,1,.84493-3.94986,6.591,6.591,0,0,1,2.36305-2.72025,5.94116,5.94116,0,0,1,3.2904-.98232,5.56726,5.56726,0,0,1,4.50628,1.90967,8.26823,8.26823,0,0,1,1.60742,5.468v1.05787H632.99982a5.284,5.284,0,0,0,1.28457,3.55144,4.03774,4.03774,0,0,0,3.12554,1.35326,4.42666,4.42666,0,0,0,2.28061-.54955,5.73012,5.73012,0,0,0,1.6349-1.45629l1.55247,1.209A6.24229,6.24229,0,0,1,637.27254,207.82854Zm-.316-13.32648a3.39018,3.39018,0,0,0-2.58286,1.1197,5.4423,5.4423,0,0,0-1.29143,3.13928h7.44634v-.19234a4.841,4.841,0,0,0-1.04414-3.0019A3.19183,3.19183,0,0,0,636.95655,194.50206Z"/><path class="cls-5" d="M652.98955,188.74556a1.51713,1.51713,0,0,1,.37782-1.04413,1.41854,1.41854,0,0,1,1.1197-.4259,1.44055,1.44055,0,0,1,1.12656.4259,1.50113,1.50113,0,0,1,.38469,1.04413,1.45174,1.45174,0,0,1-.38469,1.0304,1.46664,1.46664,0,0,1-1.12656.41216,1.44394,1.44394,0,0,1-1.1197-.41216A1.4669,1.4669,0,0,1,652.98955,188.74556Zm2.74773,18.80821h-2.54165V192.68856h2.54165Z"/><path class="cls-5" d="M668.45927,203.61078a1.87109,1.87109,0,0,0-.77624-1.60055,7.47151,7.47151,0,0,0-2.70651-.98232,12.79631,12.79631,0,0,1-3.06372-.98918,4.35863,4.35863,0,0,1-1.67611-1.37386,3.2863,3.2863,0,0,1-.54268-1.89594,3.85608,3.85608,0,0,1,1.5456-3.09119,6.03606,6.03606,0,0,1,3.94986-1.264,6.21136,6.21136,0,0,1,4.101,1.30517,4.14545,4.14545,0,0,1,1.57307,3.33849h-2.55539a2.29453,2.29453,0,0,0-.88614-1.79976,3.32025,3.32025,0,0,0-2.23253-.75562,3.4749,3.4749,0,0,0-2.17071.6045,1.90281,1.90281,0,0,0-.7831,1.57994,1.54174,1.54174,0,0,0,.72815,1.3876,8.95918,8.95918,0,0,0,2.63095.893,13.70857,13.70857,0,0,1,3.08433,1.01666,4.49905,4.49905,0,0,1,1.75167,1.422,3.4961,3.4961,0,0,1,.57016,2.02645,3.80437,3.80437,0,0,1-1.59369,3.19423,6.68487,6.68487,0,0,1-4.13533,1.20213,7.4857,7.4857,0,0,1-3.15989-.632,5.13927,5.13927,0,0,1-2.15009-1.76542,4.25507,4.25507,0,0,1-.77624-2.45235h2.54165a2.63145,2.63145,0,0,0,1.02353,2.02645,3.97068,3.97068,0,0,0,2.521.74876,4.0987,4.0987,0,0,0,2.315-.5839A1.79411,1.79411,0,0,0,668.45927,203.61078Z"/><path class="cls-5" d="M681.33238,206.22112a1.59164,1.59164,0,0,1,.39155-1.09909,1.492,1.492,0,0,1,1.17465-.43964,1.53671,1.53671,0,0,1,1.1884.43964,1.55958,1.55958,0,0,1,.40529,1.09909,1.475,1.475,0,0,1-.40529,1.05788,1.56439,1.56439,0,0,1-1.1884.4259,1.41316,1.41316,0,0,1-1.5662-1.48378Z"/><path class="cls-5" d="M688.73751,206.22112a1.59164,1.59164,0,0,1,.39155-1.09909,1.492,1.492,0,0,1,1.17465-.43964,1.53671,1.53671,0,0,1,1.1884.43964,1.55958,1.55958,0,0,1,.40529,1.09909,1.475,1.475,0,0,1-.40529,1.05788,1.56439,1.56439,0,0,1-1.1884.4259,1.41316,1.41316,0,0,1-1.5662-1.48378Z"/><path class="cls-5" d="M696.14264,206.22112a1.59164,1.59164,0,0,1,.39155-1.09909,1.492,1.492,0,0,1,1.17465-.43964,1.53671,1.53671,0,0,1,1.1884.43964,1.55958,1.55958,0,0,1,.40529,1.09909,1.475,1.475,0,0,1-.40529,1.05788,1.56439,1.56439,0,0,1-1.1884.4259,1.41316,1.41316,0,0,1-1.5662-1.48378Z"/><rect class="cls-5" x="530.62297" y="229.91608" width="210.9817" height="8.22861" rx="3.19629"/><rect class="cls-5" x="530.62297" y="246.44952" width="97.85128" height="8.22861" rx="3.19629"/></svg>
