<svg xmlns="http://www.w3.org/2000/svg" width="800" height="800" viewBox="0 0 800 800"><defs><style>.cls-1{fill:#1a1a1a;}.cls-2{fill:#fff;}.cls-3{fill:none;stroke:#d93e30;stroke-miterlimit:10;}.cls-4{fill:#d93e30;}</style></defs><title>instagram-bot-illustration</title><g id="Ebene_1" data-name="Ebene 1"><rect class="cls-1" x="143" y="111.5" width="499" height="599" rx="9.5"/><path d="M632.5,112a9.01021,9.01021,0,0,1,9,9V701a9.01023,9.01023,0,0,1-9,9h-480a9.01021,9.01021,0,0,1-9-9V121a9.01019,9.01019,0,0,1,9-9h480m0-1h-480a10,10,0,0,0-10,10V701a10,10,0,0,0,10,10h480a10,10,0,0,0,10-10V121a10,10,0,0,0-10-10Z"/><rect class="cls-2" x="167.5" y="186" width="450" height="450" rx="10"/><path class="cls-3" d="M207.5,669.10738a11.85588,11.85588,0,0,0-20-8.61936,11.85638,11.85638,0,0,0-16.42846,17.09862l-.00162.00161,16.448,16.448,16.448-16.448-.01913-.01913A11.82113,11.82113,0,0,0,207.5,669.10738Z"/><path class="cls-3" d="M262,692.93814l-2.11119-9.17765a17.4461,17.4461,0,1,0-6.148,6.64542Z"/><polygon class="cls-3" points="314 661.654 314 661.654 291.322 674.658 300.42 694.32 314 661.654"/><polygon class="cls-3" points="313.948 661.563 313.948 661.563 291.374 674.748 279 656.964 313.948 661.563"/><polygon class="cls-3" points="590.824 655.642 590.824 682.304 590.816 682.304 590.816 695.642 604.14 682.319 604.176 682.319 617.5 695.642 617.5 682.319 617.5 682.304 617.5 655.642 590.824 655.642"/><circle class="cls-4" cx="192.5" cy="147.3465" r="20"/><path class="cls-4" d="M612.5,143.3465a4,4,0,1,1-4,4,4.00451,4.00451,0,0,1,4-4m0-1a5,5,0,1,0,5,5,5,5,0,0,0-5-5Z"/><path class="cls-4" d="M592.5,143.3465a4,4,0,1,1-4,4,4.00451,4.00451,0,0,1,4-4m0-1a5,5,0,1,0,5,5,5,5,0,0,0-5-5Z"/><path class="cls-4" d="M572.5,143.3465a4,4,0,1,1-4,4,4.00451,4.00451,0,0,1,4-4m0-1a5,5,0,1,0,5,5,5,5,0,0,0-5-5Z"/><path class="cls-4" d="M244.25027,142.3465H395a5,5,0,0,1,5,5v0a5,5,0,0,1-5,5H244.25027a5,5,0,0,1-5-5v0a5,5,0,0,1,5-5Z"/><path class="cls-4" d="M526.8271,367.10987A79.62827,79.62827,0,0,0,392.5,309.21922,79.63168,79.63168,0,0,0,282.16068,424.05959l-.01083.01083L392.62049,534.54107,503.09113,424.07042l-.12846-.12846A79.395,79.395,0,0,0,526.8271,367.10987Z"/></g></svg>
