<svg xmlns="http://www.w3.org/2000/svg" width="629.44757" height="323.24057" viewBox="0 0 629.44757 323.24057"><defs><style>.cls-1{fill:#17698a;}.cls-2{fill:#ccc;}.cls-3{fill:#e6e6e6;}.cls-4{fill:#b3b3b3;}.cls-5{fill:#fff;}.cls-6{fill:#0f9ed6;}.cls-7,.cls-8{fill:none;stroke:#0f9ed6;stroke-linecap:round;stroke-miterlimit:10;stroke-width:3px;}.cls-8{stroke-dasharray:15.59051 15.59051;}.cls-9{fill:#0d394a;}.cls-10{fill:#135670;}</style></defs><g id="Ebene_2" data-name="Ebene 2"><path class="cls-1" d="M351.0963,163.6574c-20.15017,57.55436-85.67229,48.45242-85.67229,48.45242l-1.55768-28.40333s48.80725,4.93265,61.26867-30.37472Z"/><path class="cls-2" d="M346.15542,166.19152a29.19875,29.19875,0,0,1-10.9984-2.16631,28.56909,28.56909,0,0,1-15.223-14.2041,24.80166,24.80166,0,0,1-.72074-20.12315l7.78723,3.16194a16.48251,16.48251,0,0,0,.532,13.37258,20.19334,20.19334,0,0,0,10.78368,10.00824c9.8496,3.99618,20.79876.0082,24.40791-8.88679l7.78722,3.15646C366.53021,160.32169,356.734,166.19152,346.15542,166.19152Z"/><rect class="cls-3" x="290.15061" y="182.15221" width="2.80247" height="28.22105" transform="translate(-29.55821 53.3996) rotate(-9.96262)"/><rect class="cls-3" x="311.7942" y="174.21087" width="2.80043" height="28.43901" transform="translate(-52.14738 199.48119) rotate(-32.76536)"/><rect class="cls-3" x="328.0501" y="161.00504" width="2.7997" height="27.39982" transform="translate(-1.57215 346.41243) rotate(-55.35332)"/><path class="cls-1" d="M19.3208,230.80726c20.02752-57.204,85.15083-48.1575,85.15083-48.1575l1.5482,28.23045s-48.51017-4.90263-60.89575,30.18984Z"/><path class="cls-2" d="M51.03409,264.56712l-7.78723-3.15647a16.36269,16.36269,0,0,0-.5279-13.27138,20.05583,20.05583,0,0,0-10.70572-9.93712,20.09248,20.09248,0,0,0-14.60071-.331,16.36383,16.36383,0,0,0-9.62531,9.15211L0,243.86683a24.67309,24.67309,0,0,1,14.46258-13.86219,28.43075,28.43075,0,0,1,20.70986.413A28.40921,28.40921,0,0,1,50.31609,244.5479,24.67672,24.67672,0,0,1,51.03409,264.56712Z"/><rect class="cls-3" x="77.00712" y="184.28702" width="2.80247" height="28.04881" transform="translate(-33.12476 16.55429) rotate(-9.96202)"/><rect class="cls-3" x="55.40249" y="191.65952" width="2.80043" height="28.46251" transform="translate(-102.3961 63.50644) rotate(-32.76765)"/><rect class="cls-3" x="39.49539" y="206.06745" width="2.7997" height="27.60352" transform="translate(-163.23857 128.5222) rotate(-55.35566)"/><rect class="cls-4" x="161.57191" y="122.4937" width="48.32484" height="27.87972"/><rect class="cls-1" x="103.59391" y="55.90505" width="30.65135" height="49.95116" rx="1.51382"/><rect class="cls-1" x="238.03637" y="55.90505" width="30.65135" height="49.95116" rx="1.42691"/><rect class="cls-2" x="132.62471" y="268.87512" width="31.13235" height="39.49627"/><path class="cls-4" d="M175.26561,323.24057H121.11616s4.64662-25.55641,27.07473-25.09175S175.26561,323.24057,175.26561,323.24057Z"/><rect class="cls-2" x="208.2486" y="268.87512" width="31.13235" height="39.49627"/><path class="cls-4" d="M250.8895,323.24057H196.74s4.64662-25.55641,27.07473-25.09175S250.8895,323.24057,250.8895,323.24057Z"/><rect class="cls-3" x="104.06001" y="147.98678" width="163.34864" height="130.12712" rx="4.74179"/><circle class="cls-1" cx="291.72748" cy="9.56073" r="4.76494"/><path class="cls-1" d="M259.21585,68.497l-2.74345-.56346c11.58237-56.6632,32.26488-59.0073,33.14016-59.07842l.2448,2.78994C289.66316,11.6642,270.29493,14.2955,259.21585,68.497Z"/><rect class="cls-5" x="135.4256" y="165.72017" width="101.15446" height="59.01207" rx="4.06438"/><rect class="cls-1" x="199.95961" y="239.60142" width="32.52634" height="18.12182" rx="1.15108"/><circle class="cls-1" cx="174.90178" cy="248.66233" r="9.06091"/><circle class="cls-1" cx="148.78048" cy="248.66233" r="9.06091"/><rect class="cls-6" x="147.25677" y="176.87206" width="62.63998" height="6.96993" rx="1.24424"/><rect class="cls-6" x="147.25677" y="204.8809" width="39.92827" height="6.96993" rx="1.24424"/><rect class="cls-6" x="147.25677" y="190.87648" width="62.63998" height="6.96993" rx="1.24424"/><rect class="cls-3" x="118.35835" y="36.50541" width="134.75196" height="88.75043" rx="3.06888"/><ellipse class="cls-6" cx="149.42214" cy="94.12349" rx="7.08062" ry="11.15189"/><ellipse class="cls-6" cx="216.64337" cy="94.12349" rx="7.08062" ry="11.15189"/><circle class="cls-1" cx="80.55201" cy="9.56073" r="4.76494"/><path class="cls-1" d="M113.06383,68.497C101.98475,14.2955,82.61652,11.6642,82.42232,11.64505l.2448-2.78994c.87528.07112,21.55779,2.41522,33.14016,59.07842Z"/><path class="cls-7" d="M356.79371,122.5717c.62125-2.34149,1.31366-4.75781,2.09375-7.19952"/><path class="cls-8" d="M364.69706,100.92125c4.92264-9.68668,11.89526-18.13577,22.07642-21.87561,12.11395-4.44974,25.01736-.87656,37.50149-1.44623,14.00168-.64172,41.053-20.14352,31.50681-36.3313-3.35919-5.69626-10.63263-8.635-17.10114-7.25572-13.26068,2.8278-15.90686,14.366-10.26282,25.478,15.72553,30.96063,57.56684,23.90109,85.78083,10.67523"/><path class="cls-7" d="M521.15153,66.63609c2.29388-1.26025,4.45062-2.548,6.44159-3.84039"/><polygon class="cls-9" points="540.222 59.105 560.992 46.816 550.698 32.308 544.136 40.741 540.222 59.105"/><polygon class="cls-10" points="539.807 25.473 540.222 59.105 547.646 39.781 628.534 0.471 618.746 2.048 549.958 22.282 539.807 25.473"/><polygon class="cls-1" points="521.874 12.821 629.448 0 574.87 72.699 547.646 39.781 628.534 0.471 540.009 29.455 521.874 12.821"/></g></svg>
