<svg xmlns="http://www.w3.org/2000/svg" width="800" height="800" viewBox="0 0 800 800"><defs><style>.cls-1{fill:#b3b3b3;}.cls-2{fill:#e6e6e6;}.cls-3{fill:#fff;}.cls-4{fill:#ccc;}.cls-13,.cls-5,.cls-9{fill:none;stroke-miterlimit:10;}.cls-5{stroke:#999;stroke-width:2px;}.cls-6{fill:#c1272d;}.cls-7{fill:#d9e021;}.cls-8{fill:#009245;}.cls-9{stroke:#b3b3b3;}.cls-10{fill:#999;}.cls-11{opacity:0.05;}.cls-12{fill:#66f0f2;}.cls-13{stroke:#66f0f2;}</style></defs><g id="Ebene_1" data-name="Ebene 1"><path class="cls-1" d="M499.395,641H300.60519a10,10,0,0,1-9.94-11.0934l8.8-80a10,10,0,0,1,9.94-8.9066H491.395a10,10,0,0,1,9.95037,9.005l8,80A10,10,0,0,1,499.395,641Z"/><rect class="cls-2" x="200" y="635" width="400" height="50" rx="15"/><path d="M700,130a15,15,0,0,0-15-15H115a15,15,0,0,0-15,15V491H700Z"/><path class="cls-2" d="M115,565H685a15,15,0,0,0,15-15V491H100v59A15,15,0,0,0,115,565Z"/><rect class="cls-3" x="150" y="153" width="500" height="300" rx="5"/></g><g id="Ebene_2" data-name="Ebene 2"><path class="cls-4" d="M150,184H266a0,0,0,0,1,0,0V453a0,0,0,0,1,0,0H154.9954A4.9954,4.9954,0,0,1,150,448.0046V184A0,0,0,0,1,150,184Z"/><line class="cls-5" x1="150" y1="184" x2="650" y2="184"/><circle class="cls-6" cx="168.5" cy="169.5" r="4.5"/><circle class="cls-7" cx="184.5" cy="169.5" r="4.5"/><circle class="cls-8" cx="200.5" cy="169.5" r="4.5"/><line class="cls-5" x1="266" y1="184" x2="266" y2="453"/><line class="cls-9" x1="150" y1="238.2" x2="266" y2="238.2"/><line class="cls-9" x1="150" y1="291.9" x2="266" y2="291.9"/><line class="cls-9" x1="150" y1="345.6" x2="266" y2="345.6"/><line class="cls-9" x1="150" y1="399.3" x2="266" y2="399.3"/><rect class="cls-10" x="156" y="202" width="90" height="5" rx="2.5"/><rect class="cls-10" x="155.5" y="211.5" width="64.5" height="5" rx="2.5"/><rect class="cls-10" x="156" y="259" width="90" height="5" rx="2.5"/><rect class="cls-10" x="155.5" y="268.5" width="64.5" height="5" rx="2.5"/><rect class="cls-10" x="156" y="313" width="90" height="5" rx="2.5"/><rect class="cls-10" x="155.5" y="322.5" width="64.5" height="5" rx="2.5"/><rect class="cls-10" x="156" y="364" width="90" height="5" rx="2.5"/><rect class="cls-10" x="155.5" y="373.5" width="64.5" height="5" rx="2.5"/><rect class="cls-10" x="156" y="421" width="90" height="5" rx="2.5"/><rect class="cls-10" x="155.5" y="430.5" width="64.5" height="5" rx="2.5"/><g class="cls-11"><path d="M383.83836,343.64281l16.267-85.98291h24.81608l-26.808,120.84084H373.049l-19.66984-80.83721-19.66983,80.83721H308.64481L281.8374,257.6599h24.81553l16.35,85.81692,19.91882-85.81692h21.08075Z"/><path d="M460.19439,307.457h12.78124q9.12946,0,13.5282-4.56473,4.39874-4.56306,4.39874-12.11728,0-7.30191-4.35669-11.37033-4.3589-4.06509-11.99334-4.06676a17.701,17.701,0,0,0-11.53632,3.77628,12.07433,12.07433,0,0,0-4.64772,9.83492H434.38292a29.5081,29.5081,0,0,1,5.10364-16.9725,34.02323,34.02323,0,0,1,14.27516-11.7438A47.645,47.645,0,0,1,473.97157,256q19.17188,0,30.04422,9.171,10.87236,9.17178,10.87236,25.272a25.43328,25.43328,0,0,1-5.0627,15.27109,32.89163,32.89163,0,0,1-13.27921,10.70637q10.20839,3.65344,15.23015,10.95535a29.72655,29.72655,0,0,1,5.02065,17.263q0,16.10271-11.74436,25.81147-11.7438,9.71043-31.08111,9.71042-18.09459,0-29.58719-9.54443Q432.8879,361.07344,432.889,345.3857h23.98558a13.891,13.891,0,0,0,5.10475,11.12135,18.80256,18.80256,0,0,0,12.5732,4.31574q8.54683,0,13.40315-4.52323,4.85688-4.52241,4.85577-11.99279,0-18.0921-19.91882-18.09293H460.19439Z"/><path d="M630.74929,338.24813q-1.41258,19.50466-14.4002,30.70818-12.98874,11.20434-34.23492,11.20433-23.23863,0-36.55878-15.64457-13.32237-15.64292-13.32127-42.94995v-7.38657q0-17.429,6.14164-30.70818a46.02964,46.02964,0,0,1,17.5529-20.37529Q567.3405,256,582.44615,256q20.91476,0,33.696,11.20434,12.77958,11.20432,14.77313,31.45513H606.01675q-.91461-11.70231-6.51456-16.97249-5.60384-5.26937-17.056-5.27019-12.44926,0-18.63185,8.922-6.18479,8.92281-6.34967,27.67886v9.12946q0,19.5885,5.93359,28.63331,5.93415,9.04728,18.71595,9.04646,11.53466,0,17.222-5.27019,5.6835-5.26935,6.51456-16.30853Z"/></g><rect class="cls-12" x="296" y="209" width="199" height="5" rx="2.5"/><rect class="cls-12" x="296" y="219" width="111" height="5" rx="2.5"/><rect class="cls-12" x="296" y="229" width="160" height="5" rx="2.5"/><rect class="cls-12" x="296" y="259" width="289" height="5" rx="2.5"/><rect class="cls-12" x="296" y="309" width="199" height="5" rx="2.5"/><rect class="cls-12" x="296" y="319" width="111" height="5" rx="2.5"/><rect class="cls-12" x="296" y="329" width="160" height="5" rx="2.5"/><rect class="cls-12" x="296" y="359" width="289" height="5" rx="2.5"/></g><g id="Ebene_3" data-name="Ebene 3"><rect class="cls-13" x="282" y="197" width="342" height="91" rx="11.73034"/><rect class="cls-13" x="282" y="297" width="342" height="91" rx="11.73034"/></g></svg>
